<?xml version="1.0" standalone="no"?><!DOCTYPE svg PUBLIC "-//W3C//DTD SVG 1.1//EN" "http://www.w3.org/Graphics/SVG/1.1/DTD/svg11.dtd"><svg t="1605365561948" class="icon" viewBox="0 0 1024 1024" version="1.1" xmlns="http://www.w3.org/2000/svg" p-id="10523" width="200" height="200" xmlns:xlink="http://www.w3.org/1999/xlink"><defs><style type="text/css"></style></defs><path d="M288 32h448a256 256 0 0 1 256 256v448a256 256 0 0 1-256 256H288a256 256 0 0 1-256-256V288a256 256 0 0 1 256-256z" fill="#db639b" fill-opacity=".1" p-id="10524" data-spm-anchor-id="a313x.7781069.0.i17" class="selected"></path><path d="M510.304 382.912a32 32 0 0 1 36.48 21.248v212.352a41.888 41.888 0 0 1-72.896 0V404.16a32 32 0 0 1 36.416-21.248z m364.576 0a32 32 0 0 1 36.448 21.248v212.352a41.92 41.92 0 0 1-72.928 0V404.16a32 32 0 0 1 36.48-21.344z m-729.088 0a32 32 0 0 1 36.448 21.248v212.352a41.888 41.888 0 0 1-72.896 0V404.16a32 32 0 0 1 36.448-21.248z m182.656-163.904a36.448 36.448 0 0 1 36.448 36.448v510.08a36.448 36.448 0 0 1-36.448 36.448 36.448 36.448 0 0 1-36.448-36.448V255.456a36.448 36.448 0 0 1 36.448-36.448z m364 0a36.448 36.448 0 0 1 36.448 36.448v510.08a36.448 36.448 0 0 1-36.448 36.448 36.448 36.448 0 0 1-36.448-36.448V255.456a36.448 36.448 0 0 1 36.448-36.448z" fill="#db639b" p-id="10525"></path></svg>