<?xml version="1.0" standalone="no"?><!DOCTYPE svg PUBLIC "-//W3C//DTD SVG 1.1//EN" "http://www.w3.org/Graphics/SVG/1.1/DTD/svg11.dtd"><svg t="1605366329842" class="icon" viewBox="0 0 1024 1024" version="1.1" xmlns="http://www.w3.org/2000/svg" p-id="1138" xmlns:xlink="http://www.w3.org/1999/xlink" width="1em" height="1em"><defs><style type="text/css"></style></defs><path d="M430.506667 533.333333c4.693333-11.733333 9.173333-23.466667 12.8-35.84a53.12 53.12 0 0 1 2.346666-6.186666A309.333333 309.333333 0 0 1 725.333333 280.746667v66.56a30.506667 30.506667 0 0 0 48.213334 25.173333l130.773333-91.306667a30.72 30.72 0 0 0 0-50.346666l-130.773333-91.306667A30.506667 30.506667 0 0 0 725.333333 164.693333v52.053334a372.053333 372.053333 0 0 0-303.573333 176c-3.413333 5.546667-6.613333 11.306667-9.813333 16.853333a322.56 322.56 0 0 0-16.853334 34.56l-1.92 4.693333a336.426667 336.426667 0 0 0-12.8 35.626667A309.973333 309.973333 0 0 1 114.133333 700.373333a32 32 0 0 0 5.973334 64 372.693333 372.693333 0 0 0 282.24-174.933333c3.413333-5.546667 6.4-11.093333 9.6-16.64a346.453333 346.453333 0 0 0 16.64-34.773333z" p-id="1139"></path><path d="M114.133333 281.6a309.546667 309.546667 0 0 1 251.733334 178.773333 379.306667 379.306667 0 0 1 33.706666-71.68 372.906667 372.906667 0 0 0-279.466666-170.666666A32 32 0 0 0 85.333333 250.026667a31.786667 31.786667 0 0 0 28.8 31.573333zM904.106667 700.16l-130.56-91.306667A30.506667 30.506667 0 0 0 725.333333 634.026667v67.2a309.546667 309.546667 0 0 1-267.52-179.626667 411.946667 411.946667 0 0 1-33.28 71.68A372.266667 372.266667 0 0 0 725.333333 765.226667v51.413333a30.506667 30.506667 0 0 0 48.213334 25.173333l130.773333-91.306666a30.72 30.72 0 0 0-0.213333-50.346667z" p-id="1140"></path></svg>
