<?xml version="1.0" standalone="no"?><!DOCTYPE svg PUBLIC "-//W3C//DTD SVG 1.1//EN" "http://www.w3.org/Graphics/SVG/1.1/DTD/svg11.dtd"><svg t="1605366575191" class="icon" viewBox="0 0 1572 1024" version="1.1" xmlns="http://www.w3.org/2000/svg" p-id="5796" xmlns:xlink="http://www.w3.org/1999/xlink" width="1em" height="1em"><defs><style type="text/css"></style></defs><path d="M99.743114 674.724385c-24.627619 6.625705-50.005317-7.875837-56.881049-32.503457-10.126077-36.378868-15.251622-74.00787-15.001595-111.886897v-0.500053c-0.37504-110.386738 42.754546-216.398011 120.137775-295.031373C223.756301 156.79431 327.892374 112.664618 436.653939 112.539604h431.545889v-83.633893c0-26.752845 18.001914-36.753908 40.004254-22.252366L1106.475165 136.917197c22.127353 14.501542 21.877326 37.879028-0.500053 52.00553l-197.145964 124.263213c-22.37738 14.251515-40.62932 3.875412-40.62932-22.877432V206.799628H438.029086c-175.393651 0.250027-317.533765 145.01542-317.533765 323.534403 0 30.75327 4.250452 60.506434 12.001276 88.759438 5.375572 24.127566-8.750931 48.255131-32.378443 55.380889l-0.37504 0.250027z m1065.238273-292.781133c9.87605 36.503882 14.876582 74.132883 14.876581 111.886897 0.37504 110.386738-42.754546 216.523024-120.137774 295.281399-75.883069 78.008295-180.019142 122.012974-288.780708 122.012974H339.393597V995.133455c0 26.627831-18.001914 36.628895-40.129267 22.37738L101.243273 887.12197c-22.127353-14.626555-21.877326-38.004041 0.500054-52.00553l197.145963-124.263214c22.37738-14.126502 40.754334-3.875412 40.754334 22.877433v83.50888h430.170742c175.393651-0.125013 317.783792-145.01542 317.783792-323.534403 0-30.628257-4.250452-60.381421-12.12629-88.759438-2.875306-13.751462 0.500053-28.002978 9.250984-38.879135 8.750931-10.876157 22.00234-17.376848 36.003829-17.501861 20.50218 0 38.504094 13.501436 44.379719 33.128523v0.250027z m0 0" p-id="5797"></path><path d="M634.549983 362.566191v306.907635c0 11.75125-8.875944 20.627193-20.12714 20.627194-11.251196 0-20.12714-9.375997-20.127141-20.627194V395.94474L532.914175 429.823343c-9.87605 5.875625-22.127353 3.000319-27.502924-6.875731-5.375572-9.375997-1.50016-22.127353 7.875837-27.502925l90.384611-50.630384c3.375359-2.000213 6.875731-3.000319 10.751144-3.000319 11.75125 0.125013 20.12714 9.50101 20.12714 20.752207z" p-id="5798"></path></svg>
